# xmcd
#
# Track frame offsets: 
#        150
#        12295
#        24139
#        43761
#        61121
#        73635
#        86772
#        111772
#        147709
#
# Disc length: 2147 seconds
#
# Revision: 3
# Processed by: cddbd v1.5PL3 Copyright (c) Steve Scherf et al.
# Submitted via: ExactAudioCopy v0.95a3
#
DISCID=75086109
DTITLE=CANNED HEAT - Future Blues
DYEAR=1970
DGENRE=Blues
TTITLE0=Sugar Bee
TTITLE1=Shake It And Break It
TTITLE2=That's All Right, Mama
TTITLE3=My Time Ain't Long
TTITLE4=Skat
TTITLE5=Let's Work Together
TTITLE6=London Blues
TTITLE7=So Sad (The World's In A Tangle)
TTITLE8=Future Blues
EXTD=Digitally Remastered 2000 Verbatim - Mitsubishi Chemicals Corp.
EXTT0=
EXTT1=
EXTT2=
EXTT3=
EXTT4=
EXTT5=
EXTT6=
EXTT7=
EXTT8=
PLAYORDER=
